# xmcd CD database file
#
# Track frame offsets:
#	150
#	39267
#	60303
#	102839
#	127939
#	161497
#	190841
#
# Disc length: 2882 seconds
#
# Revision: 0
# Processed by: cddbd v1.5.2PL0 Copyright (c) Steve Scherf et al.
# Submitted via: CDex 1.51
#
DISCID=4b0b4007
DTITLE=Lively Steven - Conversations
DYEAR=2012
DGENRE=Jazz
TTITLE0=Long Ago And Far Away
TTITLE1=You Stepped Out Of A Dream
TTITLE2=It`s All Right With Me
TTITLE3=I Fall In Lpve Too Easily
TTITLE4=In A Sentimental Mood
TTITLE5=If I Were A Bell
TTITLE6=I Fall In Love Too Easily
EXTD=YEAR: 2012
EXTT0=
EXTT1=
EXTT2=
EXTT3=
EXTT4=
EXTT5=
EXTT6=
PLAYORDER=
